<mxfile host="app.diagrams.net" modified="2023-12-26T08:13:48.490Z" agent="Mozilla/5.0 (Windows NT 10.0; Win64; x64) AppleWebKit/537.36 (KHTML, like Gecko) Chrome/120.0.0.0 Safari/537.36" version="22.1.11" etag="zODTfWPmmJ00hXBJ_3v-" type="github">
  <diagram name="第 1 页" id="Zr40fadHwyza7Oieb1jO">
    <mxGraphModel>
      <root>
        <mxCell id="0" />
        <mxCell id="1" parent="0" />
      </root>
    </mxGraphModel>
  </diagram>
</mxfile>
